<?xml version="1.0" standalone="no"?>
<!DOCTYPE svg PUBLIC "-//W3C//DTD SVG 20010904//EN"
 "http://www.w3.org/TR/2001/REC-SVG-20010904/DTD/svg10.dtd">
<svg version="1.0" xmlns="http://www.w3.org/2000/svg"
 width="820.000000pt" height="674.000000pt" viewBox="0 0 820.000000 674.000000"
 preserveAspectRatio="xMidYMid meet">

<g transform="translate(0.000000,674.000000) scale(0.100000,-0.100000)"
fill="#000000" stroke="none">
<path d="M5010 6329 c-91 -6 -180 -29 -242 -60 -21 -11 -386 -254 -811 -541
-424 -287 -997 -673 -1273 -859 -276 -186 -517 -356 -537 -378 -71 -79 -68
-154 8 -239 52 -58 104 -91 195 -124 l65 -23 840 -5 840 -5 3 -1402 2 -1403
-1307 -2 -1308 -3 -45 -22 c-25 -12 -112 -69 -195 -125 -168 -116 -345 -237
-805 -551 -173 -118 -321 -225 -329 -239 -33 -58 37 -148 131 -168 39 -8 800
-10 2888 -8 l2835 3 48 24 c28 13 57 37 68 55 18 30 19 83 19 1933 l0 1902
813 4 c885 4 866 3 992 63 105 49 195 155 195 228 0 47 -41 105 -110 155 -36
26 -181 126 -323 222 -141 96 -683 464 -1205 817 -521 354 -966 655 -990 669
-112 66 -276 95 -462 82z"/>
</g>
</svg>
